REM DIRINDEX 1\2,1\4,1\3\5,1\3\6,1\3\7
REM DIRNAME cjc083,folder01,folder02,folder03,folder04,folder05,folder06
TITLE ""
FILE "CD1Track20.mp3" MP3
  TRACK 01 AUDIO
    TITLE "0:"
    INDEX 01 00:00:00
  TRACK 02 AUDIO
    TITLE "4:cjc083_0415"
    INDEX 01 00:00:29
  TRACK 03 AUDIO
    TITLE "0:"
    INDEX 01 00:04:48
  TRACK 04 AUDIO
    TITLE "5:cjc083_0416"
    INDEX 01 00:05:16
  TRACK 05 AUDIO
    TITLE "0:"
    INDEX 01 00:06:31
  TRACK 06 AUDIO
    TITLE "6:cjc083_0417"
    INDEX 01 00:06:73
  TRACK 07 AUDIO
    TITLE "0:"
    INDEX 01 00:08:38
  TRACK 08 AUDIO
    TITLE "5:cjc083_0418"
    INDEX 01 00:09:02
  TRACK 09 AUDIO
    TITLE "0:"
    INDEX 01 00:10:16
  TRACK 10 AUDIO
    TITLE "6:cjc083_0419"
    INDEX 01 00:10:63
  TRACK 11 AUDIO
    TITLE "0:"
    INDEX 01 00:12:01
  TRACK 12 AUDIO
    TITLE "5:cjc083_0420"
    INDEX 01 00:12:42
  TRACK 13 AUDIO
    TITLE "0:"
    INDEX 01 00:14:07
  TRACK 14 AUDIO
    TITLE "6:cjc083_0421"
    INDEX 01 00:14:58
  TRACK 15 AUDIO
    TITLE "0:"
    INDEX 01 00:16:38
  TRACK 16 AUDIO
    TITLE "5:cjc083_0422"
    INDEX 01 00:17:06
  TRACK 17 AUDIO
    TITLE "0:"
    INDEX 01 00:18:19
  TRACK 18 AUDIO
    TITLE "6:cjc083_0423"
    INDEX 01 00:18:72
  TRACK 19 AUDIO
    TITLE "0:"
    INDEX 01 00:19:69
  TRACK 20 AUDIO
    TITLE "5:cjc083_0424"
    INDEX 01 00:20:36
  TRACK 21 AUDIO
    TITLE "0:"
    INDEX 01 00:21:41
  TRACK 22 AUDIO
    TITLE "6:cjc083_0425"
    INDEX 01 00:22:25
  TRACK 23 AUDIO
    TITLE "0:"
    INDEX 01 00:24:06
  TRACK 24 AUDIO
    TITLE "5:cjc083_0426"
    INDEX 01 00:24:49
  TRACK 25 AUDIO
    TITLE "0:"
    INDEX 01 00:25:58
  TRACK 26 AUDIO
    TITLE "6:cjc083_0427"
    INDEX 01 00:26:28
  TRACK 27 AUDIO
    TITLE "0:"
    INDEX 01 00:27:63
  TRACK 28 AUDIO
    TITLE "5:cjc083_0428"
    INDEX 01 00:28:37
  TRACK 29 AUDIO
    TITLE "0:"
    INDEX 01 00:30:22
  TRACK 30 AUDIO
    TITLE "6:cjc083_0429"
    INDEX 01 00:30:65
  TRACK 31 AUDIO
    TITLE "0:"
    INDEX 01 00:32:11
  TRACK 32 AUDIO
    TITLE "5:cjc083_0430"
    INDEX 01 00:32:56
  TRACK 33 AUDIO
    TITLE "0:"
    INDEX 01 00:34:36
  TRACK 34 AUDIO
    TITLE "6:cjc083_0431"
    INDEX 01 00:35:06
  TRACK 35 AUDIO
    TITLE "0:"
    INDEX 01 00:37:26
  TRACK 36 AUDIO
    TITLE "5:cjc083_0432"
    INDEX 01 00:37:63
  TRACK 37 AUDIO
    TITLE "0:"
    INDEX 01 00:39:33
  TRACK 38 AUDIO
    TITLE "6:cjc083_0433"
    INDEX 01 00:40:07
  TRACK 39 AUDIO
    TITLE "0:"
    INDEX 01 00:42:39
  TRACK 40 AUDIO
    TITLE "5:cjc083_0434"
    INDEX 01 00:43:03
  TRACK 41 AUDIO
    TITLE "0:"
    INDEX 01 00:44:26
  TRACK 42 AUDIO
    TITLE "6:cjc083_0435"
    INDEX 01 00:44:69
  TRACK 43 AUDIO
    TITLE "0:"
    INDEX 01 00:48:18
  TRACK 44 AUDIO
    TITLE "5:cjc083_0436"
    INDEX 01 00:48:55
  TRACK 45 AUDIO
    TITLE "0:"
    INDEX 01 00:50:17
  TRACK 46 AUDIO
    TITLE "6:cjc083_0437"
    INDEX 01 00:50:60
  TRACK 47 AUDIO
    TITLE "0:"
    INDEX 01 00:54:23
  TRACK 48 AUDIO
    TITLE "5:cjc083_0438"
    INDEX 01 00:54:66
  TRACK 49 AUDIO
    TITLE "0:"
    INDEX 01 00:56:16
  TRACK 50 AUDIO
    TITLE "6:cjc083_0439"
    INDEX 01 00:56:65
  TRACK 51 AUDIO
    TITLE "0:"
    INDEX 01 00:59:10
  TRACK 52 AUDIO
    TITLE "5:cjc083_0440"
    INDEX 01 00:59:57
  TRACK 53 AUDIO
    TITLE "0:"
    INDEX 01 01:00:70
  TRACK 54 AUDIO
    TITLE "6:cjc083_0441"
    INDEX 01 01:01:40
  TRACK 55 AUDIO
    TITLE "0:"
    INDEX 01 01:02:71
  TRACK 56 AUDIO
    TITLE "5:cjc083_0442"
    INDEX 01 01:03:35
  TRACK 57 AUDIO
    TITLE "0:"
    INDEX 01 01:04:50
  TRACK 58 AUDIO
    TITLE "6:cjc083_0443"
    INDEX 01 01:05:21
  TRACK 59 AUDIO
    TITLE "0:"
    INDEX 01 01:06:45
  TRACK 60 AUDIO
    TITLE "5:cjc083_0444"
    INDEX 01 01:07:15
  TRACK 61 AUDIO
    TITLE "0:"
    INDEX 01 01:08:38
  TRACK 62 AUDIO
    TITLE "6:cjc083_0445"
    INDEX 01 01:09:07
  TRACK 63 AUDIO
    TITLE "0:"
    INDEX 01 01:10:14
  TRACK 64 AUDIO
    TITLE "5:cjc083_0446"
    INDEX 01 01:10:57
  TRACK 65 AUDIO
    TITLE "0:"
    INDEX 01 01:11:72
  TRACK 66 AUDIO
    TITLE "6:cjc083_0447"
    INDEX 01 01:12:40
  TRACK 67 AUDIO
    TITLE "0:"
    INDEX 01 01:14:19
  TRACK 68 AUDIO
    TITLE "5:cjc083_0448"
    INDEX 01 01:14:66
  TRACK 69 AUDIO
    TITLE "0:"
    INDEX 01 01:16:22
  TRACK 70 AUDIO
    TITLE "6:cjc083_0449"
    INDEX 01 01:16:63
  TRACK 71 AUDIO
    TITLE "0:"
    INDEX 01 01:18:37
  TRACK 72 AUDIO
    TITLE "5:cjc083_0450"
    INDEX 01 01:19:11
  TRACK 73 AUDIO
    TITLE "0:"
    INDEX 01 01:20:22
  TRACK 74 AUDIO
    TITLE "6:cjc083_0451"
    INDEX 01 01:20:69
  TRACK 75 AUDIO
    TITLE "0:"
    INDEX 01 01:22:21
  TRACK 76 AUDIO
    TITLE "5:cjc083_0452"
    INDEX 01 01:22:64
  TRACK 77 AUDIO
    TITLE "0:"
    INDEX 01 01:24:06
  TRACK 78 AUDIO
    TITLE "6:cjc083_0453"
    INDEX 01 01:24:53
  TRACK 79 AUDIO
    TITLE "0:"
    INDEX 01 01:28:02
  TRACK 80 AUDIO
    TITLE "7:cjc083_0454"
    INDEX 01 01:29:45
  TRACK 81 AUDIO
    TITLE "0:"
    INDEX 01 01:40:27
